# xmcd
#
# Track frame offsets: 
#        150
#        22397
#        36256
#        56566
#        78864
#        100615
#        118343
#        136346
#        160378
#        181669
#        196120
#        215204
#        236498
#        256936
#        273311
#        292642
#        314559
#
# Disc length: 4735 seconds
#
# Revision: 0
# Processed by: cddbd v1.5.2PL0 Copyright (c) Steve Scherf et al.
# Submitted via: ExactAudioCopy v1.3
#
DISCID=f1127d11
DTITLE=Various Artist - Akella Presents - vol. 186 - Blues-Rock  CD2
DYEAR=2019
DGENRE=Blues
TTITLE0=Bad Touch - Waiting For This
TTITLE1=Marc Amacher - Kid
TTITLE2=Whiskey Hell - Whiskey Dick Contest Blues
TTITLE3=Skunk - Blood Moon Rising
TTITLE4=Revolution Highway - Rollin' Train
TTITLE5=John Fairhurst - Boss Man
TTITLE6=Juniper Inc. - Ironhead
TTITLE7=The Endangered Species - Dead Silence
TTITLE8=The BigBlue - Down In Mississippi
TTITLE9=Ellis Mano Band - Whiskey
TTITLE10=SPY # ROW - I Ain't Falling
TTITLE11=West Water Outlaws - Medicine
TTITLE12=Bishop Gunn - Bank Of The River
TTITLE13=Joost De Lange - Help Me
TTITLE14=The Steel Woods - Blind Lover
TTITLE15=The Alex Fawcett Band - Minors Blues
TTITLE16=Bad Bob Bates - Bridge Street In The Rain
EXTD=
EXTT0=
EXTT1=
EXTT2=
EXTT3=
EXTT4=
EXTT5=
EXTT6=
EXTT7=
EXTT8=
EXTT9=
EXTT10=
EXTT11=
EXTT12=
EXTT13=
EXTT14=
EXTT15=
EXTT16=
PLAYORDER=
